<svg xmlns="http://www.w3.org/2000/svg" version="1.1" xmlns:xlink="http://www.w3.org/1999/xlink" width="512" height="512" x="0" y="0" viewBox="0 0 512 512" style="enable-background:new 0 0 512 512" xml:space="preserve" class=""><g><g clip-rule="evenodd" fill-rule="evenodd"><circle cx="256" cy="256" fill="#fa5252" r="256" data-original="#32bea6" class=""></circle><path d="m255.999 74.667c29.672 0 53.949 24.277 53.949 53.949v136.538c0 29.672-24.277 53.949-53.949 53.949-29.672 0-53.949-24.277-53.949-53.949v-136.538c0-29.672 24.277-53.949 53.949-53.949zm17.067 362.667v-48.883c27.453-3.802 52.114-16.635 70.855-35.376 22.552-22.552 36.55-53.673 36.55-87.921v-32.196c0-9.425-7.641-17.067-17.066-17.067-9.426 0-17.067 7.641-17.067 17.067v32.196c0 24.825-10.168 47.406-26.55 63.787-16.382 16.382-38.963 26.55-63.788 26.55s-47.406-10.169-63.787-26.55c-16.382-16.382-26.55-38.962-26.55-63.787v-32.196c0-9.425-7.641-17.067-17.066-17.067-9.426 0-17.067 7.641-17.067 17.067v32.196c0 34.247 13.998 65.369 36.55 87.921 18.741 18.741 43.401 31.574 70.855 35.376v48.883c0 9.425 7.641 17.066 17.066 17.066 9.424.001 17.065-7.641 17.065-17.066z" fill="#ffffff" data-original="#ffffff"></path></g></g></svg>