<svg xmlns="http://www.w3.org/2000/svg" version="1.1" xmlns:xlink="http://www.w3.org/1999/xlink" width="512" height="512" x="0" y="0" viewBox="0 0 512 512" style="enable-background:new 0 0 512 512" xml:space="preserve" class=""><ellipse cx="256" cy="256" fill="#fa5252" rx="256" ry="256" transform="matrix(.707 -.707 .707 .707 -106.039 256)" data-original="#ff405c" class=""></ellipse><path d="m210.273 153.931c0-23.121 18.81-41.931 41.931-41.931h7.591c23.121 0 41.931 18.811 41.931 41.931v101.347c0 23.121-18.81 41.931-41.931 41.931h-7.591c-23.122 0-41.931-18.81-41.931-41.931zm41.932 169.761h7.591c37.724 0 68.414-30.69 68.414-68.414v-101.347c0-37.723-30.69-68.414-68.414-68.414h-7.591c-37.723 0-68.414 30.691-68.414 68.414v101.347c-.001 37.723 30.691 68.414 68.414 68.414zm131.433-72.21c0-7.312-5.929-13.241-13.242-13.241s-13.241 5.929-13.241 13.241c0 55.777-45.378 101.155-101.155 101.155s-101.156-45.378-101.156-101.155c0-7.312-5.929-13.241-13.241-13.241-7.313 0-13.242 5.929-13.242 13.241 0 65.909 50.215 120.309 114.397 126.954v34.805c0 7.314 5.929 13.242 13.241 13.242 7.313 0 13.242-5.928 13.242-13.242v-34.805c64.182-6.646 114.397-61.044 114.397-126.954z" fill="#ffffff" data-original="#ffffff" class=""></path></svg>